<svg id="Layer_1" data-name="Layer 1" xmlns="http://www.w3.org/2000/svg" viewBox="0 0 100 100">
    <defs>
        <style>.cls-1{fill:#ffd4ca;}.cls-2{fill:#333;}</style>
    </defs>
    <title>_</title>
    <circle id="_Path_" data-name="<Path>" class="cls-1" cx="49.95" cy="77.69" r="9.29"></circle>
    <path id="_Path_2" data-name="<Path>" class="cls-2"
          d="M50,87.5a9.82,9.82,0,0,1-9.81-9.81,10.12,10.12,0,0,1,.45-3,2,2,0,0,1,1.9-1.37,2.18,2.18,0,0,1,.65.1A2,2,0,0,1,44.46,76a5.84,5.84,0,0,0-.25,1.73A5.79,5.79,0,1,0,50,71.9a2,2,0,0,1,0-4A9.81,9.81,0,0,1,50,87.5Z"></path>
    <circle id="_Path_3" data-name="<Path>" class="cls-2" cx="38.3" cy="53.51" r="3.57"></circle>
    <circle id="_Path_4" data-name="<Path>" class="cls-2" cx="61.7" cy="53.51" r="3.57"></circle>
    <path id="_Path_5" data-name="<Path>" class="cls-2"
          d="M33.62,82a2.17,2.17,0,0,1-1.08-.27A33.47,33.47,0,0,1,18.88,65.1l-.08-.21h-.22a11.41,11.41,0,0,1-7.88-3.41,11.32,11.32,0,0,1,0-15.92,11.41,11.41,0,0,1,7.88-3.41h.22l.08-.21A33.36,33.36,0,0,1,35.4,23.7a2.06,2.06,0,0,1,.88-.19,2,2,0,0,1,1.8,1.13,2.06,2.06,0,0,1,.08,1.55,1.94,1.94,0,0,1-1,1.14,28.95,28.95,0,0,0-15,17.52,2,2,0,0,1-1.94,1.43l-.28,0a6.21,6.21,0,0,0-1.14-.08,7.35,7.35,0,1,0,0,14.69,5.14,5.14,0,0,0,1.07-.08l.27,0a2,2,0,0,1,1.93,1.42A29,29,0,0,0,34.62,78.36a2.06,2.06,0,0,1,.67,2.76A1.91,1.91,0,0,1,33.62,82Z"></path>
    <path id="_Path_6" data-name="<Path>" class="cls-2"
          d="M66.38,82a2.14,2.14,0,0,1-1.76-.95,1.91,1.91,0,0,1-.24-1.5,1.94,1.94,0,0,1,.91-1.23A29,29,0,0,0,77.84,62.18a2,2,0,0,1,1.94-1.43l.27,0a5.13,5.13,0,0,0,1.07.08,7.35,7.35,0,1,0,0-14.69,5.13,5.13,0,0,0-1.07.08l-.27,0a2,2,0,0,1-1.93-1.42A29,29,0,0,0,50,24.33a10.61,10.61,0,0,1-6.39-2.22,9.3,9.3,0,0,1-3.43-7.59,2,2,0,1,1,4,0c0,5.62,5.19,5.79,5.79,5.79A33.09,33.09,0,0,1,81.13,41.92l.08.21h.22a11.41,11.41,0,0,1,7.88,3.41,11.32,11.32,0,0,1,0,15.92,11.41,11.41,0,0,1-7.88,3.41H81.2l-.08.21A33.48,33.48,0,0,1,67.45,81.78,2,2,0,0,1,66.38,82Z"></path>
</svg>